<svg id="Layer_1" data-name="Layer 1" xmlns="http://www.w3.org/2000/svg" viewBox="0 0 128 128"><defs><style>.cls-1,.cls-2{fill:none;stroke:#000;}.cls-1,.cls-4{stroke-miterlimit:10;}.cls-1,.cls-2,.cls-4{stroke-width:1.5px;}.cls-2{stroke-linecap:round;stroke-linejoin:round;}.cls-3{fill:#fff;}.cls-4{stroke:#fff;}</style></defs><title>studiosh_icon_2</title><path class="cls-1" d="M81.35,69.67l8.9,8.9a1.46,1.46,0,0,1,.29,1.66L86.81,95c-0.38.87-1,.39-1.41,0L70.72,80.29"/><rect x="46.4" y="29.18" width="22.68" height="54.43" rx="1" ry="1" transform="translate(-22.97 57.35) rotate(-45)"/><line class="cls-2" x1="87.56" y1="76.72" x2="83.42" y2="92.98"/><line class="cls-2" x1="84.59" y1="73.75" x2="80.45" y2="90.02"/><rect class="cls-3" x="55.51" y="31.67" width="4.75" height="49.74" transform="translate(-23.02 57.49) rotate(-45)"/><path class="cls-4" d="M57.77,56.43a6.42,6.42,0,1,1,0,9.08,6.42,6.42,0,0,1,0-9.08"/></svg>
