<svg id="Layer_1" data-name="Layer 1" xmlns="http://www.w3.org/2000/svg" xmlns:xlink="http://www.w3.org/1999/xlink" viewBox="0 0 128 128"><defs><style>.cls-1,.cls-6{fill:none;}.cls-2{clip-path:url(#clip-path);}.cls-3{fill:#fff;}.cls-4{clip-path:url(#clip-path-2);}.cls-5{fill:#231f20;}.cls-6{stroke:#231f20;stroke-linecap:round;stroke-linejoin:round;stroke-width:1.5px;}</style><clipPath id="clip-path"><rect class="cls-1" x="32.54" y="29" width="62.93" height="67"/></clipPath><clipPath id="clip-path-2"><path class="cls-1" d="M61.29,56c1.18-4.07,2.62-11.13,2.62-11.13h0.18S65.54,52,66.71,56L70.33,68.6H57.58ZM55.68,30.16l-22,64.67H50l3.89-13.57H74l4,13.57H94.3l-22-64.67H55.68Z"/></clipPath></defs><title>studiosh_icon_1</title><g class="cls-2"><path class="cls-3" d="M64.09,44.91S65.54,52,66.71,56L70.33,68.6H57.58L61.29,56c1.18-4.07,2.62-11.13,2.62-11.13h0.18ZM78,94.84H94.3l-22-64.67H55.68l-22,64.67H50l3.89-13.57H74Z"/></g><g class="cls-4"><rect class="cls-5" x="27.01" y="62.22" width="73.97" height="56.02"/></g><g class="cls-2"><path class="cls-6" d="M64.09,44.91S65.54,52,66.71,56L70.33,68.6H57.58L61.29,56c1.18-4.07,2.62-11.13,2.62-11.13h0.18ZM78,94.84H94.3l-22-64.67H55.68l-22,64.67H50l3.89-13.57H74Z"/></g></svg>